<svg xmlns="http://www.w3.org/2000/svg" viewBox="0 0 280 280"><defs><style>.ac64fe8e-83f8-406b-b6b2-6b004a400225,.fe88245c-cee8-4ce5-ba4e-2c31814e70c5{fill:none;}.ac64fe8e-83f8-406b-b6b2-6b004a400225{stroke:#f7f4f1;stroke-width:14px;}.fe88245c-cee8-4ce5-ba4e-2c31814e70c5{stroke:#1c1c29;stroke-width:4px;}</style></defs><g id="b8bfc0b7-9d2f-4d2d-8c02-6fdf575bffa6" data-name="Large"><path id="bc95d95b-2398-4d16-887f-e3977c8a252c" data-name="track" class="ac64fe8e-83f8-406b-b6b2-6b004a400225" d="M123.44,120.56c.59,4.63,1.36,10.57,2,15.66s1.2,9.49,1.88,14.86,1.65,13.45,2.16,17.38.37,4.72.89,6.19a3.8,3.8,0,0,0,2.23,2.62c1.1.48,1.85.54,4.39.21s7.37-1.46,10.85-2.19,7.55-1.67,10.05-2.24a38.08,38.08,0,0,0,4.95-1.12,6.77,6.77,0,0,0,3-2,14.53,14.53,0,0,0,2.35-4.13c.81-2,1.6-5.38,2.57-7.76s1.59-4.61,3.24-6.57a22.13,22.13,0,0,1,6.68-5.26,15.18,15.18,0,0,1,7.51-1.61c2.8.1,6.17,1.4,9.33,2.19s6.43,2,9.64,2.56a47.76,47.76,0,0,0,9.65.58c3.64-.1,7.93-.72,12.22-1.15s9.36-1,13.48-1.42,8.32-.72,11.25-1.22,5-.89,6.33-1.83a3.73,3.73,0,0,0,1.85-3.8c-.35-1.41-1-3.18-3.92-4.66s-8.2-2.32-13.77-4.17-12-4.17-19.66-6.88-17.82-6.35-26.29-9.4-16.12-6-24.55-8.92-19-6.26-26.1-8.59-10.89-3.55-16.3-5.39-12-4.25-16.13-5.66-6.51-2.25-8.47-2.78-2.74-.75-3.35-.38-.29,1.56-.28,2.61.31,2.69.34,3.73.44,1.85-.21,2.47-1.48.64-3.69,1.26S93.18,95.14,90,96.21a45.47,45.47,0,0,0-9.62,4A48.15,48.15,0,0,0,70.22,108c-4,3.93-9.58,10.84-13.78,15.8s-7.86,9.46-11.37,14a156.82,156.82,0,0,0-9.66,13.1c-2.95,4.69-5.47,10-8,15s-5.68,11.89-7.24,15.36S18,184.79,18,186.71a11.11,11.11,0,0,0,1.92,6.09,8.78,8.78,0,0,0,5.13,3.41,17.48,17.48,0,0,0,8.35-.49A11.77,11.77,0,0,0,38.89,191c1.18-1.93,1.11-3.51,1.6-6.82s.84-8.62,1.32-13,.5-9.72,1.59-13.43,3.14-5.95,5-8.79,3.94-6.56,6-8.24,3.92-1.24,6.16-1.79,5.6-1.14,7.3-1.48a17.2,17.2,0,0,1,2.9-.49,2.26,2.26,0,0,1,1.59.45,3.88,3.88,0,0,1,.94,1.56,6.17,6.17,0,0,1,.45,2c.14,1.22.18,3.79.41,5.35a18.35,18.35,0,0,0,1,4,4.07,4.07,0,0,0,1.51,2,6.21,6.21,0,0,0,2.76,1.15,34.94,34.94,0,0,0,5,.35,34.83,34.83,0,0,0,5-.15c1.25-.2,1.73,0,2.46-1a8.6,8.6,0,0,0,1.9-4.9,66.69,66.69,0,0,0-.44-11c-.44-4.63-1.94-12.65-2.2-16.73s0-5.9.6-7.74,1.42-2.19,2.79-3.27a52.77,52.77,0,0,1,5.46-3.14c2.68-1.52,7.81-4.74,10.61-6a16.6,16.6,0,0,1,6.18-1.39c1.55-.13,2.36-.17,3.12.6s1.07,2.46,1.43,4,.32,2.53.7,5.46.95,7.49,1.54,12.12"/><path id="ed77140a-0deb-4922-bd77-93436c5fbaa9" data-name="track" class="fe88245c-cee8-4ce5-ba4e-2c31814e70c5" d="M123.44,120.56c.59,4.63,1.36,10.57,2,15.66s1.2,9.49,1.88,14.86,1.65,13.45,2.16,17.38.37,4.72.89,6.19a3.8,3.8,0,0,0,2.23,2.62c1.1.48,1.85.54,4.39.21s7.37-1.46,10.85-2.19,7.55-1.67,10.05-2.24a38.08,38.08,0,0,0,4.95-1.12,6.77,6.77,0,0,0,3-2,14.53,14.53,0,0,0,2.35-4.13c.81-2,1.6-5.38,2.57-7.76s1.59-4.61,3.24-6.57a22.13,22.13,0,0,1,6.68-5.26,15.18,15.18,0,0,1,7.51-1.61c2.8.1,6.17,1.4,9.33,2.19s6.43,2,9.64,2.56a47.76,47.76,0,0,0,9.65.58c3.64-.1,7.93-.72,12.22-1.15s9.36-1,13.48-1.42,8.32-.72,11.25-1.22,5-.89,6.33-1.83a3.73,3.73,0,0,0,1.85-3.8c-.35-1.41-1-3.18-3.92-4.66s-8.2-2.32-13.77-4.17-12-4.17-19.66-6.88-17.82-6.35-26.29-9.4-16.12-6-24.55-8.92-19-6.26-26.1-8.59-10.89-3.55-16.3-5.39-12-4.25-16.13-5.66-6.51-2.25-8.47-2.78-2.74-.75-3.35-.38-.29,1.56-.28,2.61.31,2.69.34,3.73.44,1.85-.21,2.47-1.48.64-3.69,1.26S93.18,95.14,90,96.21a45.47,45.47,0,0,0-9.62,4A48.15,48.15,0,0,0,70.22,108c-4,3.93-9.58,10.84-13.78,15.8s-7.86,9.46-11.37,14a156.82,156.82,0,0,0-9.66,13.1c-2.95,4.69-5.47,10-8,15s-5.68,11.89-7.24,15.36S18,184.79,18,186.71a11.11,11.11,0,0,0,1.92,6.09,8.78,8.78,0,0,0,5.13,3.41,17.48,17.48,0,0,0,8.35-.49A11.77,11.77,0,0,0,38.89,191c1.18-1.93,1.11-3.51,1.6-6.82s.84-8.62,1.32-13,.5-9.72,1.59-13.43,3.14-5.95,5-8.79,3.94-6.56,6-8.24,3.92-1.24,6.16-1.79,5.6-1.14,7.3-1.48a17.2,17.2,0,0,1,2.9-.49,2.26,2.26,0,0,1,1.59.45,3.88,3.88,0,0,1,.94,1.56,6.17,6.17,0,0,1,.45,2c.14,1.22.18,3.79.41,5.35a18.35,18.35,0,0,0,1,4,4.07,4.07,0,0,0,1.51,2,6.21,6.21,0,0,0,2.76,1.15,34.94,34.94,0,0,0,5,.35,34.83,34.83,0,0,0,5-.15c1.25-.2,1.73,0,2.46-1a8.6,8.6,0,0,0,1.9-4.9,66.69,66.69,0,0,0-.44-11c-.44-4.63-1.94-12.65-2.2-16.73s0-5.9.6-7.74,1.42-2.19,2.79-3.27a52.77,52.77,0,0,1,5.46-3.14c2.68-1.52,7.81-4.74,10.61-6a16.6,16.6,0,0,1,6.18-1.39c1.55-.13,2.36-.17,3.12.6s1.07,2.46,1.43,4,.32,2.53.7,5.46.95,7.49,1.54,12.12"/></g></svg>